<svg width="182" height="120" viewBox="0 0 182 120" fill="none" xmlns="http://www.w3.org/2000/svg"><link xmlns="" type="text/css" rel="stylesheet" id="dark-mode-custom-link"/><link xmlns="" type="text/css" rel="stylesheet" id="dark-mode-general-link"/><style xmlns="" lang="en" type="text/css" id="dark-mode-custom-style"/><style xmlns="" lang="en" type="text/css" id="dark-mode-native-style"/><style xmlns="" lang="en" type="text/css" id="dark-mode-native-sheet" fill="#F5FFFA"/>
<rect width="2" height="120" fill="#000000FF/>
<rect x="4" width="2" height="120" fill="#000000FF"/>
<rect x="26" width="2" height="120" fill="#000000FF"/>
<rect x="30" width="2" height="120" fill="#000000FF"/>
<rect x="36" width="4" height="120" fill="#000000FF"/>
<rect x="44" width="2" height="120" fill="#000000FF"/>
<rect x="50" width="2" height="120" fill="#000000FF"/>
<rect x="54" width="4" height="120" fill="#000000FF"/>
<rect x="62" width="4" height="120" fill="#000000FF"/>
<rect x="68" width="2" height="120" fill="#000000FF"/>
<rect x="72" width="2" height="120" fill="#000000FF"/>
<rect x="86" width="2" height="120" fill="#000000FF"/>
<rect x="90" width="2" height="120" fill="#000000FF"/>
<rect x="94" width="2" height="120" fill="#000000FF"/>
<rect x="102" width="4" height="120" fill="#000000FF"/>
<rect x="108" width="4" height="120" fill="#000000FF"/>
<rect x="116" width="2" height="120" fill="#000000FF"/>
<rect x="122" width="2" height="120" fill="#000000FF"/>
<rect x="126" width="4" height="120" fill="#000000FF"/>
<rect x="132" width="2" height="120" fill="#000000FF"/>
<rect x="136" width="2" height="120" fill="#000000FF"/>
<rect x="144" width="6" height="120" fill="#000000FF"/>
<rect x="154" width="2" height="120" fill="#000000FF"/>
<rect x="158" width="2" height="120" fill="#000000FF"/>
<rect x="162" width="2" height="120" fill="#000000FF"/>
<rect x="166" width="2" height="120" fill="#000000FF"/>
<rect x="180" width="2" height="120" fill="#000000FF"/>
<rect x="170" width="8" height="120" fill="#000000FF"/>
<rect x="76" width="4" height="120" fill="#000000FF"/>
<rect x="8" width="8" height="120" fill="#000000FF"/>
<rect x="18" width="4" height="120" fill="#000000FF"/>
</svg>